# xmcd CD database file
#
# Track frame offsets:
#	150
#	18586
#	33015
#	49127
#	62276
#	76210
#	91844
#	106013
#	119582
#	132153
#	147247
#	159874
#	176641
#	189593
#	199880
#	213161
#	226703
#	242745
#	263002
#	275866
#	292217
#	305769
#	318203
#	334442
#
# Disc length: 4603 seconds
#
# Revision: 0
# Processed by: cddbd v1.5.2PL0 Copyright (c) Steve Scherf et al.
# Submitted via: CDex 1.70beta2
#
DISCID=5411f918
DTITLE=Mel Tormé - The Art Pepper-Marty Paich session
DYEAR=1959
DGENRE=Jazz
TTITLE0=Too close for comfort
TTITLE1=Once in love with Amy
TTITLE2=A sleepin bee
TTITLE3=On the street where you live
TTITLE4=All I need is a girl
TTITLE5=Just in time
TTITLE6=Hello young lovers
TTITLE7=Suurey with the fringe on top
TTITLE8=Old devil moon
TTITLE9=Whatever Lola wants
TTITLE10=Too darn hot
TTITLE11=Lonley town
TTITLE12=Makin whoopie
TTITLE13=Bubbles bangles and beads
TTITLE14=What is this thing called love
TTITLE15=I've never been in love before
TTITLE16=Truckin'
TTITLE17=A bunch of the blues/Keester parade/TNT/Tiny's blues
TTITLE18=It happened in Monterey
TTITLE19=I hadn't anyone 'til you
TTITLE20=A smooth one
TTITLE21=Li'l darlin'
TTITLE22=Some like it hot
TTITLE23=Hit the road to dreamland
EXTD=YEAR: 1959
EXTT0=
EXTT1=
EXTT2=
EXTT3=
EXTT4=
EXTT5=
EXTT6=
EXTT7=
EXTT8=
EXTT9=
EXTT10=
EXTT11=
EXTT12=
EXTT13=
EXTT14=
EXTT15=
EXTT16=
EXTT17=
EXTT18=
EXTT19=
EXTT20=
EXTT21=
EXTT22=
EXTT23=
PLAYORDER=
